<svg width="41" height="41" viewBox="0 0 41 41" fill="none" xmlns="http://www.w3.org/2000/svg">
<rect x="41" y="41" width="41" height="41" rx="5" transform="rotate(-180 41 41)" fill="#83C72E"/>
<path d="M11.4436 21.0926L23.8158 33.5527C24.102 33.8411 24.4839 34 24.8912 34C25.2986 34 25.6805 33.8411 25.9667 33.5527L26.8778 32.6353C27.4707 32.0375 27.4707 31.0659 26.8778 30.4691L16.4886 20.0058L26.8894 9.53093C27.1755 9.24251 27.3335 8.85803 27.3335 8.44805C27.3335 8.03761 27.1755 7.65313 26.8894 7.36448L25.9782 6.44731C25.6919 6.15889 25.3101 6 24.9028 6C24.4955 6 24.1135 6.15889 23.8273 6.44731L11.4436 18.9188C11.1568 19.2082 10.9993 19.5945 11.0002 20.0051C10.9993 20.4174 11.1568 20.8035 11.4436 21.0926Z" fill="white"/>
</svg>
