<svg width="41" height="41" viewBox="0 0 41 41" fill="none" xmlns="http://www.w3.org/2000/svg">
<rect width="41" height="41" rx="5" fill="#83C72E"/>
<path d="M29.8899 18.9074L17.5177 6.44731C17.2315 6.15889 16.8496 6 16.4422 6C16.0349 6 15.653 6.15889 15.3668 6.44731L14.4557 7.3647C13.8628 7.96249 13.8628 8.93406 14.4557 9.53093L24.8449 19.9942L14.4441 30.4691C14.158 30.7575 14 31.142 14 31.552C14 31.9624 14.158 32.3469 14.4441 32.6355L15.3553 33.5527C15.6417 33.8411 16.0234 34 16.4307 34C16.838 34 17.22 33.8411 17.5062 33.5527L29.8899 21.0812C30.1767 20.7918 30.3342 20.4055 30.3333 19.9949C30.3342 19.5826 30.1767 19.1965 29.8899 18.9074Z" fill="white"/>
</svg>
