<svg xmlns="http://www.w3.org/2000/svg" viewBox="0 0 53.7 15.33"><defs><style>.cls-1{fill:#3b3a49;}.cls-2{fill:#fa7513;}</style></defs><title>Asset 2</title><g id="Layer_2" data-name="Layer 2"><g id="Layer_1-2" data-name="Layer 1"><path class="cls-1" d="M1.65,9.71H0V.15H6.26V1.72H1.65V4.13H5v1.4H1.65Z"/><path class="cls-1" d="M6.66,4.93A4.88,4.88,0,0,1,8,1.42,4.68,4.68,0,0,1,11.52,0,4.72,4.72,0,0,1,16.4,4.93,4.79,4.79,0,0,1,15,8.47a4.73,4.73,0,0,1-3.49,1.39A4.69,4.69,0,0,1,6.66,4.93Zm1.73,0a3.36,3.36,0,0,0,.9,2.4,2.91,2.91,0,0,0,2.23,1,2.91,2.91,0,0,0,2.29-1,3.45,3.45,0,0,0,.85-2.4,3.37,3.37,0,0,0-.91-2.42,3,3,0,0,0-2.23-.94,3,3,0,0,0-2.25.94A3.45,3.45,0,0,0,8.39,4.93Z"/><path class="cls-1" d="M1.88,14.42l.12.22a.88.88,0,0,1-.33.2,1.56,1.56,0,0,1-.44.07,1.21,1.21,0,0,1-.89-.34A1.24,1.24,0,0,1,0,13.66a1.28,1.28,0,0,1,.33-.9,1.11,1.11,0,0,1,.88-.35,1.08,1.08,0,0,1,.74.23l-.13.22a1,1,0,0,0-.6-.18A.85.85,0,0,0,.57,13a1,1,0,0,0-.26.71,1,1,0,0,0,.26.7.93.93,0,0,0,.69.27A1,1,0,0,0,1.88,14.42Z"/><path class="cls-1" d="M2.19,13.66a1.25,1.25,0,0,1,.35-.89,1.18,1.18,0,0,1,.89-.36,1.19,1.19,0,0,1,.89.35,1.22,1.22,0,0,1,.35.9,1.25,1.25,0,0,1-.35.89,1.21,1.21,0,0,1-.89.36,1.23,1.23,0,0,1-.89-.35A1.25,1.25,0,0,1,2.19,13.66Zm.31,0a1,1,0,0,0,.27.69.87.87,0,0,0,.66.28.86.86,0,0,0,.67-.28,1,1,0,0,0,0-1.39.91.91,0,0,0-.66-.28.84.84,0,0,0-.66.28A.94.94,0,0,0,2.5,13.66Z"/><path class="cls-1" d="M6.91,14.87h-.3V12.72H5.73l0,.46a6.16,6.16,0,0,1-.11.77,2.75,2.75,0,0,1-.14.51.85.85,0,0,1-.18.28.46.46,0,0,1-.2.13.54.54,0,0,1-.22,0v-.29a.28.28,0,0,0,.13,0,.37.37,0,0,0,.11-.11.78.78,0,0,0,.14-.26,5.3,5.3,0,0,0,.2-1.27l0-.49H6.91Z"/><path class="cls-1" d="M9.57,14.87H9.28v-1.1H7.94v1.1h-.3V12.44h.3v1.05H9.28V12.44h.29Z"/><path class="cls-1" d="M12.25,14.87H10.3V12.44h.3V14.6h1.3V12.44h.3V14.6h.33v.73h-.28Z"/><path class="cls-1" d="M14.41,14.87H13V12.44h1.37v.28H13.29v.78h1v.28h-1v.82h1.12Z"/><path class="cls-1" d="M15.57,14.91a1,1,0,0,1-.47-.11.75.75,0,0,1-.33-.27l.16-.2a1.06,1.06,0,0,0,.29.22.88.88,0,0,0,.33.08.62.62,0,0,0,.4-.12.43.43,0,0,0,.15-.34.36.36,0,0,0-.12-.29.49.49,0,0,0-.35-.11h-.29v-.28h.27a.43.43,0,0,0,.28-.11.42.42,0,0,0,.12-.3.36.36,0,0,0-.12-.29.48.48,0,0,0-.32-.11A.72.72,0,0,0,15,13l-.17-.19a.78.78,0,0,1,.33-.26,1,1,0,0,1,.43-.09.7.7,0,0,1,.51.17.58.58,0,0,1,.19.47.59.59,0,0,1-.09.32.67.67,0,0,1-.26.24h0a.52.52,0,0,1,.33.2.57.57,0,0,1,.12.37.6.6,0,0,1-.25.52A.89.89,0,0,1,15.57,14.91Z"/><path class="cls-1" d="M17,14.87h-.3l1-2.44H18l1,2.44h-.31l-.32-.73H17.3Zm1.31-1-.44-1-.44,1Z"/><path class="cls-1" d="M22.24,14.87H19.46V12.44h.29V14.6h.93V12.44H21V14.6h.92V12.44h.3V14.6h.33v.73h-.28Z"/><path class="cls-1" d="M24.73,12.93l-1.48,1.94H23V12.44h.29v2l1.48-2H25v2.43h-.29Z"/><path class="cls-1" d="M26.28,12.72h-.86v-.28h2v.28h-.85v2.15h-.29Z"/><path class="cls-1" d="M29.75,14.87h-.29v-1.1H28.12v1.1h-.3V12.44h.3v1.05h1.34V12.44h.29Z"/><path class="cls-1" d="M30.48,12.44h.3v.9h.32a1,1,0,0,1,.67.19.68.68,0,0,1,.23.56.72.72,0,0,1-.25.59,1.09,1.09,0,0,1-.71.21h-.56Zm.6,1.16-.3,0v1h.29c.41,0,.62-.17.62-.52a.41.41,0,0,0-.16-.35A.71.71,0,0,0,31.08,13.6Zm1.61,1.27H32.4V12.44h.29Z"/><path class="cls-1" d="M34.83,14.87H33.42V12.44H34.8v.28H33.72v.78h1v.28h-1v.82h1.11Z"/><path class="cls-1" d="M38.68,14.42l.12.22a.88.88,0,0,1-.33.2,1.62,1.62,0,0,1-.44.07,1.21,1.21,0,0,1-.89-.34,1.24,1.24,0,0,1-.34-.91,1.32,1.32,0,0,1,.32-.9,1.15,1.15,0,0,1,.89-.35,1.08,1.08,0,0,1,.74.23l-.13.22a1,1,0,0,0-.61-.18.86.86,0,0,0-.65.27,1,1,0,0,0-.25.71,1,1,0,0,0,.26.7.93.93,0,0,0,.69.27A1,1,0,0,0,38.68,14.42Z"/><path class="cls-1" d="M41,12.93l-1.48,1.94h-.26V12.44h.29v2l1.48-2h.26v2.43H41Z"/><path class="cls-1" d="M43.73,14.42l.12.22a.88.88,0,0,1-.33.2,1.62,1.62,0,0,1-.44.07,1.23,1.23,0,0,1-.9-.34,1.39,1.39,0,0,1,0-1.81,1.13,1.13,0,0,1,.89-.35,1.09,1.09,0,0,1,.74.23l-.14.22a1,1,0,0,0-.6-.18.86.86,0,0,0-.65.27,1,1,0,0,0-.25.71.91.91,0,0,0,1,1A1,1,0,0,0,43.73,14.42Z"/><path class="cls-1" d="M44.84,12.72H44v-.28h2v.28h-.86v2.15h-.29Z"/><path class="cls-1" d="M47.79,14.87h-1.4V12.44h1.37v.28H46.68v.78h1v.28h-1v.82h1.11Z"/><path class="cls-1" d="M48.68,14.87h-.29V12.44h.29l.92,1.25.88-1.25h.28v2.43h-.3v-2l-.86,1.21h-.05l-.87-1.2Z"/><path class="cls-1" d="M51.49,12.44h.29v.9h.33a1,1,0,0,1,.67.19.71.71,0,0,1,.23.56.73.73,0,0,1-.26.59,1.07,1.07,0,0,1-.71.21h-.55Zm.6,1.16-.31,0v1h.3c.41,0,.61-.17.61-.52a.43.43,0,0,0-.15-.35A.75.75,0,0,0,52.09,13.6Zm1.61,1.27h-.3V12.44h.3Z"/><polygon class="cls-1" points="52.07 0.15 48.86 4.62 45.5 0.15 43.76 0.15 43.76 9.71 45.49 9.71 45.49 2.84 48.33 6.65 49.16 6.65 51.98 2.8 51.98 9.71 53.7 9.71 53.7 0.15 52.07 0.15"/><path class="cls-1" d="M22.81,5.81a3.12,3.12,0,0,0,1.39-.92,2.68,2.68,0,0,0,.6-1.8Q24.8.15,21.05.15H17.63V9.71h1.81V6.14H21l2.58,3.57h2.2Zm-.48-1.63a2.44,2.44,0,0,1-1.43.4H19.44V1.72H21c1.28,0,1.92.46,1.92,1.39A1.24,1.24,0,0,1,22.33,4.18Z"/><path class="cls-1" d="M41.18,1.37a5.08,5.08,0,0,0-7,0c-.1.11-.18.23-.27.35l0,.65a2,2,0,0,0,1.28.48,2.82,2.82,0,0,1,.29-.39,3,3,0,0,1,2.24-.94,3,3,0,0,1,2.24.94,3.41,3.41,0,0,1,.91,2.42A3.46,3.46,0,0,1,40,7.33a2.88,2.88,0,0,1-2.29,1,2.93,2.93,0,0,1-2.23-1A3.47,3.47,0,0,1,35.17,7c-1,.09-1,.17-1.26.52l0,.62a3.19,3.19,0,0,0,.33.4,5.09,5.09,0,0,0,7,0,4.79,4.79,0,0,0,1.39-3.54A4.78,4.78,0,0,0,41.18,1.37Z"/><path class="cls-2" d="M25.77,5.2A4.65,4.65,0,0,0,26,6.38h9.37a4.65,4.65,0,0,0,.22-1.18Z"/><path class="cls-2" d="M26.17,6.91a4.64,4.64,0,0,0,.75,1.18h7.51a5,5,0,0,0,.76-1.18Z"/><path class="cls-2" d="M26,3.48a4.65,4.65,0,0,0-.22,1.18h9.81a4.65,4.65,0,0,0-.22-1.18Z"/><path class="cls-2" d="M33.91,1.24a4.84,4.84,0,0,0-6.47,0Z"/><path class="cls-2" d="M26.92,1.77A4.64,4.64,0,0,0,26.17,3h9a5,5,0,0,0-.76-1.18Z"/><path class="cls-2" d="M27.44,8.63a4.87,4.87,0,0,0,6.47,0Z"/></g></g></svg>